<svg xmlns="http://www.w3.org/2000/svg" viewBox="0 0 1600 900" role="img" aria-labelledby="title desc">
  <title id="title">Header accueil moderne</title>
  <desc id="desc">Fond abstrait sombre avec panneaux d'interface et lueurs chaudes.</desc>
  <defs>
    <linearGradient id="bg" x1="0%" y1="0%" x2="100%" y2="100%">
      <stop offset="0%" stop-color="#08070b"/>
      <stop offset="55%" stop-color="#140b12"/>
      <stop offset="100%" stop-color="#050608"/>
    </linearGradient>
    <radialGradient id="glowA" cx="0%" cy="0%" r="75%">
      <stop offset="0%" stop-color="#ff7a1a" stop-opacity="0.45"/>
      <stop offset="100%" stop-color="#ff7a1a" stop-opacity="0"/>
    </radialGradient>
    <radialGradient id="glowB" cx="100%" cy="100%" r="70%">
      <stop offset="0%" stop-color="#17c7ff" stop-opacity="0.24"/>
      <stop offset="100%" stop-color="#17c7ff" stop-opacity="0"/>
    </radialGradient>
    <linearGradient id="panel" x1="0%" y1="0%" x2="100%" y2="100%">
      <stop offset="0%" stop-color="#1c1820" stop-opacity="0.94"/>
      <stop offset="100%" stop-color="#0f1117" stop-opacity="0.82"/>
    </linearGradient>
  </defs>
  <rect width="1600" height="900" fill="url(#bg)"/>
  <rect width="1600" height="900" fill="url(#glowA)"/>
  <rect width="1600" height="900" fill="url(#glowB)"/>
  <g opacity="0.08" stroke="#ffffff">
    <path d="M0 170h1600"/>
    <path d="M0 320h1600"/>
    <path d="M0 470h1600"/>
    <path d="M0 620h1600"/>
    <path d="M0 770h1600"/>
    <path d="M170 0v900"/>
    <path d="M420 0v900"/>
    <path d="M670 0v900"/>
    <path d="M920 0v900"/>
    <path d="M1170 0v900"/>
    <path d="M1420 0v900"/>
  </g>
  <circle cx="1280" cy="180" r="210" fill="#ff4d57" opacity="0.08"/>
  <circle cx="1385" cy="710" r="240" fill="#ffb703" opacity="0.09"/>
  <circle cx="240" cy="110" r="160" fill="#ffffff" opacity="0.03"/>
  <g transform="translate(860 150)">
    <rect width="540" height="360" rx="32" fill="url(#panel)" stroke="#ffffff" stroke-opacity="0.12"/>
    <rect x="34" y="34" width="472" height="48" rx="16" fill="#12151d"/>
    <circle cx="66" cy="58" r="8" fill="#ff5c61"/>
    <circle cx="92" cy="58" r="8" fill="#ffb703"/>
    <circle cx="118" cy="58" r="8" fill="#44d07c"/>
    <rect x="48" y="116" width="176" height="16" rx="8" fill="#ff8b94" opacity="0.75"/>
    <rect x="48" y="154" width="328" height="14" rx="7" fill="#ffffff" opacity="0.2"/>
    <rect x="48" y="184" width="286" height="14" rx="7" fill="#ffffff" opacity="0.15"/>
    <rect x="48" y="214" width="248" height="14" rx="7" fill="#ffb703" opacity="0.32"/>
    <rect x="48" y="268" width="206" height="56" rx="18" fill="#161a22"/>
    <rect x="278" y="268" width="186" height="56" rx="18" fill="#161a22"/>
    <rect x="48" y="284" width="110" height="12" rx="6" fill="#ffffff" opacity="0.22"/>
    <rect x="278" y="284" width="92" height="12" rx="6" fill="#ffffff" opacity="0.22"/>
    <path d="M88 380c34-48 69-96 114-100s60 44 107 44 72-44 106-78 77-56 131-36" fill="none" stroke="#ff7b22" stroke-width="8" stroke-linecap="round"/>
    <path d="M86 398c24 0 24 22 48 22s24-22 48-22 24 22 48 22 24-22 48-22 24 22 48 22 24-22 48-22 24 22 48 22" fill="none" stroke="#17c7ff" stroke-width="5" stroke-linecap="round" opacity="0.7"/>
  </g>
  <g transform="translate(760 558)">
    <rect width="290" height="112" rx="24" fill="#121319" stroke="#ffffff" stroke-opacity="0.08"/>
    <rect x="28" y="28" width="88" height="22" rx="11" fill="#ff5c61" opacity="0.7"/>
    <rect x="28" y="64" width="188" height="14" rx="7" fill="#ffffff" opacity="0.18"/>
  </g>
  <g transform="translate(1120 560)">
    <rect width="220" height="144" rx="26" fill="#11151c" stroke="#ffffff" stroke-opacity="0.08"/>
    <rect x="24" y="30" width="58" height="58" rx="18" fill="#ffb703" opacity="0.22"/>
    <rect x="100" y="38" width="88" height="12" rx="6" fill="#ffffff" opacity="0.26"/>
    <rect x="100" y="62" width="68" height="12" rx="6" fill="#ffffff" opacity="0.16"/>
    <rect x="24" y="104" width="172" height="12" rx="6" fill="#17c7ff" opacity="0.3"/>
  </g>
</svg>
