<svg xmlns="http://www.w3.org/2000/svg" viewBox="0 0 1600 900" role="img" aria-labelledby="title desc">
  <title id="title">Header experiences moderne</title>
  <desc id="desc">Fond abstrait sombre avec frise d'experiences et panneaux techniques.</desc>
  <defs>
    <linearGradient id="bg" x1="0%" y1="0%" x2="100%" y2="100%">
      <stop offset="0%" stop-color="#09080a"/>
      <stop offset="56%" stop-color="#120d13"/>
      <stop offset="100%" stop-color="#071015"/>
    </linearGradient>
    <radialGradient id="leftGlow" cx="8%" cy="18%" r="55%">
      <stop offset="0%" stop-color="#ff7b22" stop-opacity="0.32"/>
      <stop offset="100%" stop-color="#ff7b22" stop-opacity="0"/>
    </radialGradient>
    <radialGradient id="rightGlow" cx="92%" cy="22%" r="50%">
      <stop offset="0%" stop-color="#17c7ff" stop-opacity="0.22"/>
      <stop offset="100%" stop-color="#17c7ff" stop-opacity="0"/>
    </radialGradient>
  </defs>
  <rect width="1600" height="900" fill="url(#bg)"/>
  <rect width="1600" height="900" fill="url(#leftGlow)"/>
  <rect width="1600" height="900" fill="url(#rightGlow)"/>
  <g opacity="0.08" stroke="#ffffff">
    <path d="M0 180h1600"/>
    <path d="M0 360h1600"/>
    <path d="M0 540h1600"/>
    <path d="M0 720h1600"/>
    <path d="M240 0v900"/>
    <path d="M520 0v900"/>
    <path d="M800 0v900"/>
    <path d="M1080 0v900"/>
    <path d="M1360 0v900"/>
  </g>
  <g transform="translate(764 202)">
    <path d="M110 236h492" fill="none" stroke="#ffffff" stroke-opacity="0.12" stroke-width="4"/>
    <circle cx="146" cy="236" r="18" fill="#ff5c61"/>
    <circle cx="332" cy="236" r="18" fill="#ffb703"/>
    <circle cx="520" cy="236" r="18" fill="#17c7ff"/>
    <rect x="82" y="72" width="132" height="106" rx="24" fill="#151921" stroke="#ffffff" stroke-opacity="0.08"/>
    <rect x="268" y="34" width="148" height="144" rx="28" fill="#13171f" stroke="#ffffff" stroke-opacity="0.08"/>
    <rect x="456" y="88" width="172" height="126" rx="28" fill="#11161c" stroke="#ffffff" stroke-opacity="0.08"/>
    <rect x="108" y="102" width="80" height="12" rx="6" fill="#ffffff" opacity="0.2"/>
    <rect x="108" y="128" width="56" height="12" rx="6" fill="#ff8b94" opacity="0.72"/>
    <rect x="296" y="66" width="92" height="14" rx="7" fill="#ffffff" opacity="0.24"/>
    <rect x="296" y="94" width="126" height="14" rx="7" fill="#ffffff" opacity="0.15"/>
    <rect x="296" y="126" width="84" height="14" rx="7" fill="#17c7ff" opacity="0.28"/>
    <rect x="486" y="120" width="104" height="14" rx="7" fill="#ffffff" opacity="0.2"/>
    <rect x="486" y="148" width="74" height="14" rx="7" fill="#ffb703" opacity="0.26"/>
  </g>
  <g transform="translate(1080 592)">
    <rect width="250" height="126" rx="26" fill="#101419" stroke="#ffffff" stroke-opacity="0.08"/>
    <rect x="26" y="28" width="80" height="12" rx="6" fill="#ffffff" opacity="0.24"/>
    <rect x="26" y="54" width="126" height="12" rx="6" fill="#ffffff" opacity="0.16"/>
    <rect x="26" y="84" width="98" height="12" rx="6" fill="#ff5c61" opacity="0.3"/>
  </g>
</svg>
